# xmcd CD database file
#
# Track frame offsets:
#	150
#	14548
#	26426
#	54315
#	70270
#	85739
#	100342
#	123668
#	145203
#	160510
#	176809
#	192607
#	205299
#	216024
#	230325
#	246820
#	259745
#	270693
#	289881
#	303291
#	318608
#	330354
#
# Disc length: 4567 seconds
#
# Revision: 0
# Processed by: cddbd v1.5.2PL0 Copyright (c) Steve Scherf et al.
# Submitted via: CDex 1.51
#
DISCID=4211d516
DTITLE=Count Basie - 4 Originals CD 1
DYEAR=1900
DGENRE=Jazz
TTITLE0=Blues In Hoss's Flat - (Chairman Of The Board)
TTITLE1=H.R.H. 'Her Royal Highness)
TTITLE2=Segue In C
TTITLE3=Kansas City Shout
TTITLE4=Speaking Of Sounds
TTITLE5=Tv Time
TTITLE6=Who, Me ?
TTITLE7=The Deacon
TTITLE8=Half Moon Street
TTITLE9=Mutt and Jeff
TTITLE10=Ain't Misbehavin' - (Ain't Misbehavin')
TTITLE11=I'll Always Be In Love With You 
TTITLE12=Sweet Sue, Just You
TTITLE13=If I Could Be With You
TTITLE14=Dinah
TTITLE15=Sometimes I'm Happy
TTITLE16=Baby Won't You Please Come Home
TTITLE17=Call Me Darling
TTITLE18=The One I Love Belongs To Somebody Else
TTITLE19=Memories Of You
TTITLE20=Honeysuckle Rose
TTITLE21=All Of Me
EXTD=
EXTT0=
EXTT1=
EXTT2=
EXTT3=
EXTT4=
EXTT5=
EXTT6=
EXTT7=
EXTT8=
EXTT9=
EXTT10=
EXTT11=
EXTT12=
EXTT13=
EXTT14=
EXTT15=
EXTT16=
EXTT17=
EXTT18=
EXTT19=
EXTT20=
EXTT21=
PLAYORDER=
